<svg width="38" height="39" viewBox="0 0 38 39" fill="none" xmlns="http://www.w3.org/2000/svg">
<path d="M18.59 0C23.5204 0 28.2488 2.02285 31.7351 5.62355C35.2214 9.22425 37.18 14.1078 37.18 19.2C37.18 24.2922 35.2214 29.1758 31.7351 32.7765C28.2488 36.3772 23.5204 38.4 18.59 38.4C13.6596 38.4 8.93119 36.3772 5.44488 32.7765C1.95858 29.1758 0 24.2922 0 19.2C0 14.1078 1.95858 9.22425 5.44488 5.62355C8.93119 2.02285 13.6596 0 18.59 0ZM3.718 19.2C3.718 23.2737 5.28487 27.1806 8.07391 30.0612C10.8629 32.9417 14.6457 34.56 18.59 34.56C22.5343 34.56 26.3171 32.9417 29.1061 30.0612C31.8951 27.1806 33.462 23.2737 33.462 19.2C33.462 15.1263 31.8951 11.2194 29.1061 8.33884C26.3171 5.45828 22.5343 3.84 18.59 3.84C14.6457 3.84 10.8629 5.45828 8.07391 8.33884C5.28487 11.2194 3.718 15.1263 3.718 19.2ZM23.3119 20.544L16.731 27.36L14.1098 24.6528L19.3336 19.2L14.1284 13.7664L16.731 11.0592L24.6132 19.2L23.3119 20.544Z" fill="#2F3A4B"/>
</svg>
