<svg width="160" height="39" viewBox="0 0 160 39" fill="none" xmlns="http://www.w3.org/2000/svg">
<path d="M16.8251 -0.00238239C18.9492 -0.00238239 20.8352 0.235661 22.4832 0.711746C24.1312 1.15121 25.5045 1.8104 26.6032 2.68933C27.7385 3.53164 28.5991 4.57536 29.185 5.82051C29.771 7.02903 30.064 8.38405 30.064 9.88555C30.064 11.7166 29.5512 13.328 28.5258 14.7196C27.5004 16.1113 25.9623 17.1916 23.9115 17.9607C21.8973 18.7297 19.3887 19.1143 16.3857 19.1143L20.4507 17.3015V19.5537L16.9899 17.7959C20.2127 17.7959 22.9227 18.217 25.12 19.0593C27.3539 19.9017 29.0385 21.0919 30.1738 22.63C31.3091 24.1681 31.8767 25.9809 31.8767 28.0683C31.8767 29.753 31.5471 31.2728 30.888 32.6278C30.2654 33.9828 29.3315 35.1364 28.0864 36.0886C26.8778 37.0407 25.3763 37.7732 23.5819 38.2859C21.824 38.762 19.7915 39 17.4843 39H0.619904V36.6928H1.16923C2.48762 36.6928 3.58628 36.5646 4.46521 36.3083C5.34414 36.0519 5.7836 35.5209 5.7836 34.7152V4.28239C5.7836 3.4767 5.34414 2.94569 4.46521 2.68933C3.58628 2.43298 2.48762 2.3048 1.16923 2.3048H0.619904V-0.00238239H16.8251ZM9.62891 17.1916H16.8251C18.8027 17.1916 20.3774 16.8987 21.5494 16.3127C22.7579 15.6901 23.6185 14.8295 24.1312 13.7309C24.6439 12.6322 24.9003 11.3687 24.9003 9.94048C24.9003 8.40236 24.6073 7.10228 24.0213 6.04024C23.472 4.9782 22.5931 4.17252 21.3846 3.62319C20.2127 3.07386 18.6745 2.7992 16.7702 2.7992H10.8924V36.1984H17.3744C19.4985 36.1984 21.2381 35.8871 22.5931 35.2646C23.9847 34.642 24.9918 33.7264 25.6144 32.5179C26.2736 31.2728 26.6032 29.7713 26.6032 28.0134C26.6032 26.4387 26.2919 25.047 25.6693 23.8385C25.0467 22.63 24.058 21.6778 22.7029 20.982C21.3479 20.2862 19.5718 19.9383 17.3744 19.9383H9.62891V17.1916ZM41.4578 34.7152V4.28239C41.4578 3.4767 41.0184 2.94569 40.1394 2.68933C39.2605 2.43298 38.1618 2.3048 36.8435 2.3048H36.2941V-0.00238239H51.6753V2.3048H51.126C49.8442 2.3048 48.7639 2.43298 47.885 2.68933C47.006 2.94569 46.5666 3.4767 46.5666 4.28239V34.7152C46.5666 35.5209 47.006 36.0519 47.885 36.3083C48.7639 36.5646 49.8442 36.6928 51.126 36.6928H51.6753V39H36.2941V36.6928H36.8435C38.1618 36.6928 39.2605 36.5646 40.1394 36.3083C41.0184 36.0519 41.4578 35.5209 41.4578 34.7152ZM72.0645 -0.00238239V2.3048H71.4602C70.1784 2.3048 69.0798 2.41467 68.1642 2.6344C67.2487 2.85413 66.7909 3.27528 66.7909 3.89785V36.1435H74.8111C76.3859 36.1435 77.6676 36.0702 78.6564 35.9238C79.6452 35.7773 80.3777 35.5209 80.8537 35.1547C81.3665 34.7519 81.6594 34.2025 81.7327 33.5067L82.3369 26.695H85.2484V39H56.5185V36.6928H57.0678C58.3862 36.6928 59.4848 36.5646 60.3638 36.3083C61.2427 36.0519 61.6822 35.5209 61.6822 34.7152V4.28239C61.6822 3.4767 61.2427 2.94569 60.3638 2.68933C59.4848 2.43298 58.3862 2.3048 57.0678 2.3048H56.5185V-0.00238239H72.0645ZM97.8997 22.7399H114.325L114.38 25.4865H97.4602L97.8997 22.7399ZM105.261 2.24987L106.249 3.45839L95.153 35.5942C95.153 35.8139 95.3545 36.0153 95.7573 36.1984C96.1601 36.3449 96.6728 36.4731 97.2954 36.583C97.9546 36.6562 98.6687 36.6928 99.4378 36.6928H100.482V39H88.2315V36.6928H88.5611C89.5133 36.6928 90.3006 36.528 90.9232 36.1984C91.5824 35.8322 92.0951 35.1181 92.4613 34.056L104.327 -0.00238239H109.436L121.741 35.0448C121.997 35.7773 122.418 36.235 123.004 36.4182C123.627 36.6013 124.377 36.6928 125.256 36.6928H125.531V39H111.523V36.6928H112.402C113.098 36.6928 113.794 36.6745 114.489 36.6379C115.185 36.6013 115.771 36.5463 116.247 36.4731C116.723 36.3632 116.961 36.2534 116.961 36.1435L105.261 2.24987ZM144.501 -0.00238239C146.625 -0.00238239 148.511 0.235661 150.159 0.711746C151.807 1.15121 153.181 1.8104 154.279 2.68933C155.415 3.53164 156.275 4.57536 156.861 5.82051C157.447 7.02903 157.74 8.38405 157.74 9.88555C157.74 11.7166 157.227 13.328 156.202 14.7196C155.177 16.1113 153.638 17.1916 151.588 17.9607C149.573 18.7297 147.065 19.1143 144.062 19.1143L148.127 17.3015V19.5537L144.666 17.7959C147.889 17.7959 150.599 18.217 152.796 19.0593C155.03 19.9017 156.715 21.0919 157.85 22.63C158.985 24.1681 159.553 25.9809 159.553 28.0683C159.553 29.753 159.223 31.2728 158.564 32.6278C157.942 33.9828 157.008 35.1364 155.763 36.0886C154.554 37.0407 153.052 37.7732 151.258 38.2859C149.5 38.762 147.468 39 145.16 39H128.296V36.6928H128.845C130.164 36.6928 131.262 36.5646 132.141 36.3083C133.02 36.0519 133.46 35.5209 133.46 34.7152V4.28239C133.46 3.4767 133.02 2.94569 132.141 2.68933C131.262 2.43298 130.164 2.3048 128.845 2.3048H128.296V-0.00238239H144.501ZM137.305 17.1916H144.501C146.479 17.1916 148.054 16.8987 149.225 16.3127C150.434 15.6901 151.295 14.8295 151.807 13.7309C152.32 12.6322 152.576 11.3687 152.576 9.94048C152.576 8.40236 152.283 7.10228 151.697 6.04024C151.148 4.9782 150.269 4.17252 149.061 3.62319C147.889 3.07386 146.351 2.7992 144.446 2.7992H138.569V36.1984H145.051C147.175 36.1984 148.914 35.8871 150.269 35.2646C151.661 34.642 152.668 33.7264 153.291 32.5179C153.95 31.2728 154.279 29.7713 154.279 28.0134C154.279 26.4387 153.968 25.047 153.345 23.8385C152.723 22.63 151.734 21.6778 150.379 20.982C149.024 20.2862 147.248 19.9383 145.051 19.9383H137.305V17.1916Z" fill="white" fill-opacity="0.69"/>
</svg>
