<svg width="35" height="35" viewBox="0 0 35 35" fill="none" xmlns="http://www.w3.org/2000/svg">
<path d="M15.6977 20.633H1.74419V30.9495C1.74419 31.8615 2.11171 32.7362 2.76591 33.3811C3.4201 34.026 4.30738 34.3883 5.23256 34.3883H29.6512C30.5763 34.3883 31.4636 34.026 32.1178 33.3811C32.772 32.7362 33.1395 31.8615 33.1395 30.9495V20.633H19.186V24.0718H15.6977V20.633ZM15.6977 18.9136H0V8.59708C0 6.70572 1.56977 5.15825 3.48837 5.15825H10.4651V3.43883C10.4651 2.5268 10.8326 1.65212 11.4868 1.00721C12.141 0.362304 13.0283 0 13.9535 0L20.9302 0C21.8554 0 22.7427 0.362304 23.3969 1.00721C24.0511 1.65212 24.4186 2.5268 24.4186 3.43883V5.15825H31.3953C32.3205 5.15825 33.2078 5.52055 33.862 6.16546C34.5162 6.81036 34.8837 7.68504 34.8837 8.59708V18.9136H19.186V15.4747H15.6977V18.9136ZM20.9302 5.15825V3.43883H13.9535V5.15825H20.9302Z" fill="white" fill-opacity="0.81"/>
</svg>
