<svg width="40" height="40" viewBox="0 0 40 40" fill="none" xmlns="http://www.w3.org/2000/svg">
<g clip-path="url(#clip0_396_1600)">
<path d="M22.0002 18H30.0002V22H22.0002V30H18.0002V22H10.0002V18H18.0002V10H22.0002V18ZM20.0002 40C14.6959 40 9.60884 37.8929 5.85811 34.1421C2.10738 30.3914 0.000244141 25.3043 0.000244141 20C0.000244141 14.6957 2.10738 9.60859 5.85811 5.85786C9.60884 2.10714 14.6959 0 20.0002 0C25.3046 0 30.3917 2.10714 34.1424 5.85786C37.8931 9.60859 40.0002 14.6957 40.0002 20C40.0002 25.3043 37.8931 30.3914 34.1424 34.1421C30.3917 37.8929 25.3046 40 20.0002 40ZM20.0002 36C24.2437 36 28.3134 34.3143 31.314 31.3137C34.3145 28.3131 36.0002 24.2435 36.0002 20C36.0002 15.7565 34.3145 11.6869 31.314 8.68629C28.3134 5.68571 24.2437 4 20.0002 4C15.7568 4 11.6871 5.68571 8.68654 8.68629C5.68595 11.6869 4.00024 15.7565 4.00024 20C4.00024 24.2435 5.68595 28.3131 8.68654 31.3137C11.6871 34.3143 15.7568 36 20.0002 36Z" fill="#2F3A4B"/>
</g>
<defs>
<clipPath id="clip0_396_1600">
<rect width="40" height="40" fill="white" transform="translate(0.000244141)"/>
</clipPath>
</defs>
</svg>
