<svg width="35" height="35" viewBox="0 0 35 35" fill="none" xmlns="http://www.w3.org/2000/svg">
<path d="M34.7963 18.8276C34.4661 22.0654 33.2107 25.1444 31.1759 27.7067C29.1411 30.2691 26.4105 32.2096 23.3014 33.3028C20.1922 34.396 16.8322 34.597 13.6118 33.8824C10.3914 33.1679 7.44276 31.5671 5.10861 29.2661C2.77445 26.965 1.15059 24.0583 0.425722 20.8836C-0.299145 17.7089 -0.0952566 14.3966 1.0137 11.3317C2.12265 8.26666 4.09113 5.57482 6.6904 3.56893C9.28967 1.56304 12.413 0.325457 15.6974 0V18.8276H34.7963ZM34.6567 14.3571H20.2323V0.137553C23.8463 0.715395 27.1842 2.3997 29.7731 4.95181C32.362 7.50393 34.0706 10.7944 34.6567 14.3571Z" fill="white" fill-opacity="0.81"/>
</svg>
