<svg width="47" height="47" viewBox="0 0 47 47" fill="none" xmlns="http://www.w3.org/2000/svg">
<path d="M0 11.75C0 5.26065 5.26065 0 11.75 0H35.25C41.7393 0 47 5.26065 47 11.75V35.25C47 41.7393 41.7393 47 35.25 47H11.75C5.26065 47 0 41.7393 0 35.25V11.75Z" fill="#2F3A4B"/>
<path fill-rule="evenodd" clip-rule="evenodd" d="M35.0575 31.2809C34.9549 31.1786 34.8735 31.057 34.818 30.9232C34.7625 30.7894 34.7339 30.6459 34.7339 30.501C34.7339 30.3561 34.7625 30.2126 34.818 30.0788C34.8735 29.945 34.9549 29.8234 35.0575 29.7211L40.8892 23.8916L35.0575 18.0622C34.8507 17.8553 34.7345 17.5748 34.7345 17.2822C34.7345 16.9897 34.8507 16.7092 35.0575 16.5023C35.2644 16.2955 35.5449 16.1793 35.8374 16.1793C36.1299 16.1793 36.4105 16.2955 36.6173 16.5023L43.2267 23.1117C43.3293 23.214 43.4107 23.3356 43.4662 23.4694C43.5217 23.6033 43.5503 23.7467 43.5503 23.8916C43.5503 24.0365 43.5217 24.18 43.4662 24.3138C43.4107 24.4476 43.3293 24.5692 43.2267 24.6715L36.6173 31.2809C36.515 31.3835 36.3934 31.4649 36.2596 31.5204C36.1258 31.5759 35.9823 31.6045 35.8374 31.6045C35.6925 31.6045 35.5491 31.5759 35.4152 31.5204C35.2814 31.4649 35.1598 31.3835 35.0575 31.2809Z" fill="white"/>
<path fill-rule="evenodd" clip-rule="evenodd" d="M19.3141 23.8917C19.3141 23.5995 19.4301 23.3193 19.6367 23.1127C19.8433 22.9062 20.1235 22.7901 20.4156 22.7901H40.2438C40.5359 22.7901 40.8161 22.9062 41.0227 23.1127C41.2293 23.3193 41.3453 23.5995 41.3453 23.8917C41.3453 24.1838 41.2293 24.464 41.0227 24.6706C40.8161 24.8772 40.5359 24.9932 40.2438 24.9932H20.4156C20.1235 24.9932 19.8433 24.8772 19.6367 24.6706C19.4301 24.464 19.3141 24.1838 19.3141 23.8917Z" fill="white"/>
<path fill-rule="evenodd" clip-rule="evenodd" d="M13.8063 36.0089C12.9298 36.0089 12.0893 35.6607 11.4695 35.0409C10.8498 34.4212 10.5016 33.5806 10.5016 32.7042V15.0792C10.5016 14.2027 10.8498 13.3621 11.4695 12.7424C12.0893 12.1226 12.9298 11.7745 13.8063 11.7745H29.2281C30.1046 11.7745 30.9452 12.1226 31.5649 12.7424C32.1847 13.3621 32.5328 14.2027 32.5328 15.0792V18.3839C32.5328 18.676 32.4168 18.9562 32.2102 19.1628C32.0036 19.3694 31.7234 19.4854 31.4313 19.4854C31.1391 19.4854 30.8589 19.3694 30.6524 19.1628C30.4458 18.9562 30.3297 18.676 30.3297 18.3839V15.0792C30.3297 14.787 30.2137 14.5068 30.0071 14.3002C29.8005 14.0937 29.5203 13.9776 29.2281 13.9776H13.8063C13.5141 13.9776 13.2339 14.0937 13.0274 14.3002C12.8208 14.5068 12.7047 14.787 12.7047 15.0792V32.7042C12.7047 32.9963 12.8208 33.2765 13.0274 33.4831C13.2339 33.6897 13.5141 33.8057 13.8063 33.8057H29.2281C29.5203 33.8057 29.8005 33.6897 30.0071 33.4831C30.2137 33.2765 30.3297 32.9963 30.3297 32.7042V29.3995C30.3297 29.1073 30.4458 28.8271 30.6524 28.6206C30.8589 28.414 31.1391 28.2979 31.4313 28.2979C31.7234 28.2979 32.0036 28.414 32.2102 28.6206C32.4168 28.8271 32.5328 29.1073 32.5328 29.3995V32.7042C32.5328 33.5806 32.1847 34.4212 31.5649 35.0409C30.9452 35.6607 30.1046 36.0089 29.2281 36.0089H13.8063Z" fill="white"/>
</svg>
